<?xml version="1.0" encoding="UTF-8" standalone="no"?>
<!-- Created with Inkscape (http://www.inkscape.org/) -->

<svg
   xmlns:dc="http://purl.org/dc/elements/1.1/"
   xmlns:cc="http://creativecommons.org/ns#"
   xmlns:rdf="http://www.w3.org/1999/02/22-rdf-syntax-ns#"
   xmlns:svg="http://www.w3.org/2000/svg"
   xmlns="http://www.w3.org/2000/svg"
   xmlns:sodipodi="http://sodipodi.sourceforge.net/DTD/sodipodi-0.dtd"
   xmlns:inkscape="http://www.inkscape.org/namespaces/inkscape"
   width="744.09448819"
   height="1052.3622047"
   id="svg2"
   version="1.1"
   inkscape:version="0.48.4 r9939"
   inkscape:export-filename="C:\Users\Sean\Desktop\bitmap.png"
   inkscape:export-xdpi="90"
   inkscape:export-ydpi="90"
   sodipodi:docname="sofa.svg">
  <defs
     id="defs4" />
  <sodipodi:namedview
     id="base"
     pagecolor="#ffffff"
     bordercolor="#666666"
     borderopacity="1.0"
     inkscape:pageopacity="0.0"
     inkscape:pageshadow="2"
     inkscape:zoom="3.959798"
     inkscape:cx="357.99204"
     inkscape:cy="503.18168"
     inkscape:document-units="px"
     inkscape:current-layer="layer1"
     showgrid="false"
     inkscape:window-width="1920"
     inkscape:window-height="1178"
     inkscape:window-x="1912"
     inkscape:window-y="-8"
     inkscape:window-maximized="1" />
  <metadata
     id="metadata7">
    <rdf:RDF>
      <cc:Work
         rdf:about="">
        <dc:format>image/svg+xml</dc:format>
        <dc:type
           rdf:resource="http://purl.org/dc/dcmitype/StillImage" />
        <dc:title></dc:title>
      </cc:Work>
    </rdf:RDF>
  </metadata>
  <g
     inkscape:label="Layer 1"
     inkscape:groupmode="layer"
     id="layer1">
    <path
       sodipodi:type="arc"
       style="fill:#000000"
       id="path3162"
       sodipodi:cx="244.58319"
       sodipodi:cy="534.78528"
       sodipodi:rx="24.36993"
       sodipodi:ry="21.59201"
       d="m 268.95312,534.78528 a 24.36993,21.59201 0 1 1 -48.73986,0 24.36993,21.59201 0 1 1 48.73986,0 z"
       transform="matrix(0.95854922,0,0,1.0409357,13.421159,-19.997759)" />
    <path
       sodipodi:type="arc"
       style="fill:#000000"
       id="path3162-6"
       sodipodi:cx="244.58319"
       sodipodi:cy="534.78528"
       sodipodi:rx="24.36993"
       sodipodi:ry="21.59201"
       d="m 268.95312,534.78528 a 24.36993,21.59201 0 1 1 -48.73986,0 24.36993,21.59201 0 1 1 48.73986,0 z"
       transform="matrix(0.95854922,0,0,1.0409357,219.87108,-20.250318)" />
    <path
       style="fill:none;stroke:#000000;stroke-width:1px;stroke-linecap:butt;stroke-linejoin:miter;stroke-opacity:1"
       d="m 253.04321,615.47121 0,17.42513 c 1.94983,3.29866 4.85426,5.57431 7.28028,6.49202 l 14.14214,1.26269 c 4.16872,-1.68627 6.29508,-4.39373 7.61947,-7.50217 l 0.75761,-12.37437 c -6.00973,0.0743 -10.05895,0.73671 -20.45559,-0.50508 -2.55775,-0.20719 -5.84017,-2.22606 -9.34391,-4.79822 z"
       id="path3184"
       inkscape:connector-curvature="0"
       sodipodi:nodetypes="cccccccc" />
    <path
       style="fill:none;stroke:#000000;stroke-width:1px;stroke-linecap:butt;stroke-linejoin:miter;stroke-opacity:1"
       d="m 449.72118,615.48654 0,17.42513 c -1.94983,3.29866 -4.85426,5.57431 -7.28028,6.49202 l -14.14214,1.26269 c -4.16872,-1.68627 -6.29508,-4.39373 -7.61947,-7.50217 l -0.75761,-12.37437 c 6.00973,0.0743 10.05895,0.73671 20.45559,-0.50508 2.55775,-0.20719 5.84017,-2.22606 9.34391,-4.79822 z"
       id="path3184-0"
       inkscape:connector-curvature="0"
       sodipodi:nodetypes="cccccccc" />
    <path
       style="fill:none;stroke:#000000;stroke-width:1px;stroke-linecap:butt;stroke-linejoin:miter;stroke-opacity:1"
       d="m 241.96429,558.43361 4.46428,37.5 c 4.85313,5.67263 6.68355,12.47879 22.32143,14.10714 l 166.96429,0 c 6.58469,-1.96717 12.6863,-0.79426 21.07143,-14.46428 l 4.10714,-37.67857 -29.46428,-23.57143 -8.75001,19.28571 C 374.8377,540.03772 327.18656,538.22653 279.82143,554.1479 l -9.46429,-22.50001 z"
       id="path3222"
       inkscape:connector-curvature="0"
       sodipodi:nodetypes="ccccccccccc" />
    <path
       style="fill:none;stroke:#000000;stroke-width:1px;stroke-linecap:butt;stroke-linejoin:miter;stroke-opacity:1"
       d="m 244.82143,502.18361 c 6.05155,-16.95058 3.7223,-35.50337 40.35714,-46.60714 l 126.96429,-0.53572 c 39.40524,6.9284 39.96137,27.84248 45,47.14286 -32.0998,1.37127 -31.50425,20.63245 -40.17857,34.82143 -74.39275,-13.11305 -96.03035,-3.44547 -131.25,0.35714 -7.94093,-30.29363 -24.05645,-33.91228 -40.89286,-35.17857 z"
       id="path3224"
       inkscape:connector-curvature="0"
       sodipodi:nodetypes="ccccccc" />
    <path
       style="fill:#000000"
       d="m 287.34748,536.48545 c -1.25363,-0.0511 -1.28376,-0.0635 -1.47322,-0.607 -0.10638,-0.30516 -0.19342,-0.70465 -0.19342,-0.88776 0,-0.1831 -0.0746,-0.47245 -0.16568,-0.64299 -0.0911,-0.17055 -0.49926,-1.35472 -0.90696,-2.63151 -1.00568,-3.14951 -2.46288,-6.68857 -3.86014,-9.375 -1.22518,-2.35559 -3.69752,-6.20382 -4.83162,-7.52048 -1.40299,-1.62883 -5.41417,-5.51231 -5.41417,-5.2418 0,0.0537 -0.17586,-0.0662 -0.39081,-0.26648 -0.21495,-0.20025 -0.46941,-0.3641 -0.56548,-0.3641 -0.0961,0 -0.12325,-0.0514 -0.0604,-0.11425 0.0628,-0.0628 -0.20254,-0.28382 -0.58973,-0.49107 -0.38718,-0.20725 -0.84734,-0.49735 -1.02256,-0.64468 -0.17522,-0.14732 -0.9786,-0.58928 -1.78529,-0.98214 -0.99457,-0.48435 -1.46862,-0.81488 -1.47264,-1.02678 -0.004,-0.23582 -0.15645,-0.3125 -0.61931,-0.3125 -0.82284,0 -1.52948,-0.28672 -1.52948,-0.62058 0,-0.19879 -0.19355,-0.27228 -0.7171,-0.27228 -1.0636,0 -2.14005,-0.38116 -2.14005,-0.75777 0,-0.26403 -0.16814,-0.31366 -1.06263,-0.31366 -1.59129,0 -2.86594,-0.31444 -2.86594,-0.70698 0,-0.28902 -0.25689,-0.32988 -2.63393,-0.41895 -2.54476,-0.0954 -7.12523,-0.53799 -7.29189,-0.70466 -0.0448,-0.0448 0.19897,-0.97578 0.5417,-2.06887 0.34272,-1.09309 1.11582,-3.8169 1.71801,-6.05292 1.44784,-5.37602 2.51984,-8.81286 3.49606,-11.20833 0.87738,-2.15296 2.65779,-5.6399 2.98275,-5.84171 0.11284,-0.0701 0.18191,-0.19061 0.15348,-0.26785 -0.092,-0.25004 2.31791,-3.48637 2.66338,-3.57671 0.1841,-0.0481 0.33473,-0.19979 0.33473,-0.33698 0,-0.46526 0.4033,-0.91339 0.74223,-0.82476 0.23619,0.0618 0.3292,-0.0116 0.3292,-0.25974 0,-0.44508 1.19555,-1.84837 1.48132,-1.73871 0.11968,0.0459 0.29739,-0.0984 0.39492,-0.32074 0.0975,-0.22233 0.35813,-0.48356 0.57911,-0.58051 0.22099,-0.097 0.40179,-0.23757 0.40179,-0.3125 0,-0.24999 0.64439,-0.78452 0.85938,-0.71286 0.11663,0.0389 0.21374,-0.0365 0.21582,-0.16741 0.005,-0.29362 2.6882,-2.23104 5.08552,-3.67154 4.4076,-2.64846 12.36858,-6.12013 14.0342,-6.12013 0.41127,0 0.73799,-0.10328 0.82638,-0.26122 0.31816,-0.56853 1.61377,-0.81021 4.34341,-0.81021 1.45269,0 2.66803,-0.0698 2.70077,-0.15513 0.0333,-0.0867 22.72142,-0.24307 51.39881,-0.35436 28.2366,-0.10959 55.87946,-0.22058 61.42857,-0.24666 5.54911,-0.0261 10.35044,0.0192 10.66964,0.1007 0.3192,0.0815 0.58036,0.26227 0.58036,0.40179 0,0.19636 0.29902,0.25366 1.32366,0.25366 3.09783,0 12.3882,2.91129 17.50546,5.48562 2.76313,1.39004 8.13516,4.94153 8.13516,5.37822 0,0.0827 0.2009,0.2418 0.44643,0.35367 0.24554,0.11188 0.44643,0.32567 0.44643,0.47509 0,0.14943 0.10568,0.27169 0.23484,0.27169 0.12916,0 0.86227,0.64286 1.62913,1.42857 0.76687,0.78572 1.35348,1.42857 1.30358,1.42857 -0.0499,0 0.1859,0.30134 0.52399,0.66965 1.05448,1.14874 2.95205,4.14508 4.10555,6.48286 1.56411,3.16992 2.75807,6.42784 4.05916,11.07598 0.46241,1.652 2.95397,12.02082 2.9012,12.07359 -0.027,0.027 -1.04818,0.13406 -2.26932,0.23793 -1.22115,0.10387 -2.70241,0.26533 -3.2917,0.35879 -0.58929,0.0935 -1.52679,0.17054 -2.08334,0.17128 -0.55654,7.2e-4 -1.03868,0.0765 -1.07143,0.16834 -0.0327,0.0919 -0.86309,0.34161 -1.84523,0.55502 -0.98214,0.21342 -1.94643,0.45792 -2.14286,0.54334 -0.19643,0.0854 -0.95982,0.34856 -1.69643,0.58475 -3.22728,1.03486 -7.00812,3.16975 -9.80782,5.53812 -1.38362,1.17045 -3.63914,3.67886 -4.54794,5.05789 -0.207,0.3141 -0.517,0.60792 -0.68888,0.65292 -0.18075,0.0473 -0.3125,0.25116 -0.3125,0.48347 0,0.22091 -0.18352,0.6503 -0.40784,0.95422 -0.2243,0.30391 -0.50382,0.77355 -0.62116,1.04364 -0.13182,0.3034 -0.35128,0.49107 -0.57432,0.49107 -0.29475,0 -0.36096,0.1168 -0.36096,0.63674 0,0.75946 -0.27015,1.32755 -0.63129,1.32755 -0.16928,0 -0.26157,0.18179 -0.26157,0.51521 0,0.79026 -0.39256,1.55856 -0.75893,1.48534 -0.25735,-0.0514 -0.3125,0.068 -0.3125,0.67666 0,0.9138 -0.26009,1.42993 -0.72057,1.42993 -0.29655,0 -0.35086,0.12382 -0.35086,0.79996 0,0.83605 -0.45932,2.23575 -0.73367,2.23575 -0.0876,0 -0.15919,0.15799 -0.15919,0.35109 0,0.52087 -0.56651,1.6132 -0.83664,1.6132 -0.14067,0 -0.23478,0.21009 -0.23478,0.52409 0,0.74244 -0.30067,1.44019 -0.62059,1.44019 -0.18251,0 -0.27227,0.17384 -0.27227,0.52732 0,0.74657 -0.35696,1.43697 -0.74295,1.43697 -0.24673,0 -0.32848,0.1348 -0.32848,0.54165 0,0.83949 -0.81786,2.31549 -1.28302,2.31549 -0.9097,0 -2.64555,-0.40629 -2.64555,-0.61922 0,-0.16421 -0.59398,-0.25053 -2.1875,-0.31789 -2.32538,-0.0983 -2.8125,-0.20219 -2.8125,-0.59985 0,-0.19509 -0.36439,-0.24875 -1.68914,-0.24875 -0.92902,0 -2.29509,-0.0901 -3.03571,-0.20028 -1.12741,-0.16768 -1.34658,-0.25488 -1.34658,-0.53571 0,-0.31118 -0.16965,-0.33544 -2.34583,-0.33544 -2.84854,0 -5.51131,-0.3175 -5.51131,-0.65716 0,-0.17825 -0.40262,-0.23564 -1.65179,-0.23546 -2.27759,3.5e-4 -7.14281,-0.53307 -7.37012,-0.80801 -0.12228,-0.14791 -1.00736,-0.24948 -2.67858,-0.3074 -3.48969,-0.12094 -9.9337,-0.65867 -10.30602,-0.86001 -0.17054,-0.0922 -1.13483,-0.16983 -2.14286,-0.17248 -1.00802,-0.003 -3.92206,-0.1214 -6.47563,-0.2639 -6.31339,-0.35234 -18.29789,-0.34159 -24.64286,0.0221 -2.75,0.15762 -5.24107,0.27306 -5.53571,0.25652 -0.29465,-0.0165 -1.1384,0.056 -1.875,0.1612 -3.10984,0.44415 -8.35448,0.9003 -10.35141,0.9003 -1.76107,0 -2.14859,0.0469 -2.14859,0.25977 0,0.15501 -0.23405,0.29715 -0.58036,0.35246 -2.32514,0.3714 -3.5268,0.4592 -6.28421,0.4592 l -3.13543,0 0,0.44643 0,0.44643 -4.01786,0 -4.01786,0 0,0.53571 0,0.53572 -3.03571,0 -3.03572,0 0,0.44643 0,0.44643 -2.5,0 -2.5,0 0,0.44642 c 0,0.37479 -0.0841,0.44643 -0.52409,0.44643 -0.28825,0 -0.71012,0.0603 -0.9375,0.13393 -0.22737,0.0737 -0.98932,0.11046 -1.6932,0.0818 l 0,0 z"
       id="path3226"
       inkscape:connector-curvature="0" />
    <path
       style="fill:#000000"
       d="m 266.66299,609.19079 c -1.1064,-0.15772 -1.86114,-0.35416 -1.98397,-0.51637 -0.12605,-0.16644 -0.51203,-0.2618 -1.05972,-0.2618 -0.95945,0 -2.93846,-0.49691 -2.93846,-0.73782 0,-0.0853 -0.20488,-0.15504 -0.45529,-0.15504 -0.57312,0 -1.4325,-0.43595 -1.57103,-0.79696 -0.0676,-0.17612 -0.33419,-0.27447 -0.74405,-0.27447 -0.4432,0 -0.77537,-0.13665 -1.08515,-0.44642 -0.24553,-0.24554 -0.55535,-0.44643 -0.68847,-0.44643 -0.40432,0 -2.25656,-1.49923 -3.58963,-2.90548 -0.69224,-0.73024 -2.05167,-2.38417 -3.02097,-3.6754 -0.96929,-1.29123 -1.81534,-2.34769 -1.8801,-2.34769 -0.0648,0 -0.0824,-0.24108 -0.0391,-0.53572 0.065,-0.44318 0.0168,-0.53571 -0.27925,-0.53571 -0.45621,0 -0.52762,-0.44148 -0.68599,-4.24107 -0.086,-2.06416 -0.18255,-2.90179 -0.33439,-2.90179 -0.29027,0 -0.62792,-2.96214 -0.61746,-5.4169 0.01,-2.34757 -0.14751,-3.5653 -0.44633,-3.45063 -0.28396,0.10897 -0.63421,-3.21479 -0.63421,-6.01847 0,-1.72832 -0.0451,-2.07829 -0.26785,-2.07829 -0.14732,0 -0.26786,-0.0633 -0.26786,-0.14071 0,-0.0774 -0.11989,-1.10195 -0.26643,-2.27679 -0.14654,-1.17483 -0.26707,-3.12044 -0.26786,-4.32357 -0.001,-1.7318 -0.0524,-2.1875 -0.24592,-2.1875 -0.17379,0 -0.30485,-0.47062 -0.45321,-1.62749 -0.1148,-0.89513 -0.22576,-1.71879 -0.24658,-1.83036 -0.0448,-0.2401 0.4551,-0.23806 3.26571,0.0133 13.45837,1.20367 25.24778,-9.01342 25.38081,-21.99584 0.0101,-0.98547 0.0593,-1.67122 0.10942,-1.5239 0.0501,0.14732 0.28397,0.69709 0.51976,1.22171 0.23579,0.52461 0.52687,1.32733 0.64686,1.7838 0.11999,0.45648 0.3543,0.96696 0.52069,1.1344 0.1664,0.16745 0.3588,0.61027 0.42755,0.98406 0.0688,0.37378 0.18807,0.72099 0.26514,0.77159 0.0771,0.0506 1.38879,3.0547 2.91491,6.67578 1.52612,3.62109 2.80782,6.61685 2.84823,6.65726 0.0404,0.0404 1.46934,-0.37951 3.17541,-0.93315 6.04639,-1.96213 11.06751,-3.33381 12.09334,-3.30369 0.70985,0.0208 0.93594,-0.0312 0.87892,-0.20224 -0.097,-0.29101 1.92923,-0.84962 3.10587,-0.85625 0.45833,-0.003 0.86105,-0.0879 0.89493,-0.18948 0.1005,-0.3015 2.09813,-0.69488 3.56341,-0.70172 1.15936,-0.005 1.37567,-0.0544 1.44717,-0.32784 0.10457,-0.39986 1.82411,-0.74995 3.68353,-0.74995 0.97131,0 1.27406,-0.0592 1.27406,-0.2493 0,-0.37125 2.75886,-0.82292 5.02381,-0.82249 1.69557,3.2e-4 1.90804,-0.0349 1.98497,-0.32907 0.11125,-0.42544 1.18283,-0.5598 4.48115,-0.56187 2.27949,-0.001 2.479,-0.028 2.56097,-0.3415 0.11938,-0.45652 0.70161,-0.52403 5.72588,-0.66389 3.33347,-0.0928 4.15179,-0.16364 4.15179,-0.35944 0,-0.14546 0.19816,-0.24641 0.49107,-0.25017 0.27009,-0.003 1.57589,-0.0832 2.90178,-0.17728 4.03413,-0.28612 21.95026,-0.22079 26.875,0.098 17.34319,1.12265 36.64867,4.31879 52.87207,8.75328 1.66144,0.45414 3.18151,0.85824 3.37793,0.898 0.19643,0.0398 0.91231,0.23208 1.59084,0.42737 l 1.2337,0.35508 0.41809,-0.45113 c 0.22995,-0.24812 0.41809,-0.64788 0.41809,-0.88836 0,-0.36676 0.0863,-0.43723 0.53571,-0.43723 0.53525,0 0.53572,-9.3e-4 0.53572,-1.06302 0,-1.15019 0.27253,-1.97269 0.65366,-1.97269 0.14587,0 0.23919,-0.20572 0.23919,-0.52731 0,-0.74657 0.35695,-1.43698 0.74295,-1.43698 0.26304,0 0.32848,-0.1394 0.32848,-0.69968 0,-0.93005 0.14677,-1.2646 0.55482,-1.2646 0.27115,0 0.33852,-0.13252 0.34049,-0.66965 0.004,-1.12979 0.14676,-1.4293 0.63621,-1.33573 0.41264,0.0789 0.43277,0.04 0.43277,-0.83668 0,-1.07486 0.39875,-2.15794 0.79446,-2.15794 0.19847,0 0.27697,-0.18049 0.27697,-0.63674 0,-0.75947 0.27014,-1.32755 0.63128,-1.32755 0.18786,0 0.26157,-0.20966 0.26157,-0.74405 0,-1.18136 0.17345,-0.69389 0.36722,1.03202 0.5758,5.12887 3.05209,10.03476 6.88521,13.6406 5.41659,5.09543 13.05313,7.37212 20.42615,6.08967 1.03125,-0.17937 1.88357,-0.31713 1.89405,-0.30612 0.0105,0.011 -0.0883,0.86377 -0.21948,1.89502 -0.13118,1.03125 -0.31707,2.75893 -0.41307,3.83929 -0.096,1.08036 -0.29658,3.00893 -0.44574,4.28571 -0.14916,1.27679 -0.47419,4.20983 -0.72228,6.51786 -0.24811,2.30804 -0.4995,4.47768 -0.55865,4.82143 -0.12416,0.72144 -0.14944,0.96241 -0.5501,5.24235 -0.16716,1.78565 -0.38998,3.28025 -0.5064,3.39666 -0.13019,0.13019 -0.25032,1.27425 -0.32146,3.06122 -0.14073,3.53597 -0.25727,4.37628 -0.58923,4.2489 -0.15107,-0.058 -0.24622,0.0255 -0.24622,0.21605 0,0.26968 -0.5068,1.23822 -0.93207,1.78125 -0.0769,0.0982 -0.51205,0.70089 -0.96696,1.33928 -2.11293,2.96515 -5.8992,6.60715 -6.86889,6.60715 -0.18658,0 -0.33922,0.10763 -0.33922,0.23919 0,0.3036 -0.85996,0.72471 -1.37166,0.67168 -0.22905,-0.0237 -0.46364,0.0981 -0.56941,0.29576 -0.099,0.18487 -0.52634,0.44368 -0.94977,0.57515 -0.42343,0.13146 -1.25202,0.39478 -1.8413,0.58514 -0.58929,0.19037 -1.51339,0.39063 -2.05357,0.44502 -0.54018,0.0544 -1.02232,0.15392 -1.07143,0.22115 -0.0491,0.0672 -0.7895,0.29622 -1.64532,0.50886 l -1.55604,0.38662 -83.53325,-0.0194 c -71.28497,-0.0165 -83.79508,-0.0567 -85.31896,-0.27391 z"
       id="path3228"
       inkscape:connector-curvature="0" />
    <path
       style="fill:#000000"
       d="m 265.63868,639.29589 c -5.17583,-0.48984 -5.33683,-0.51683 -6.37098,-1.06802 -1.30074,-0.69329 -3.09154,-2.15326 -3.98864,-3.25179 -0.55706,-0.68213 -0.66965,-0.95755 -0.66965,-1.63816 0,-0.75365 -0.0352,-0.81816 -0.44642,-0.81816 l -0.44643,0 0,-7.5 0,-7.5 0.67857,0 c 0.73944,0 1.10714,0.24909 1.10714,0.75 0,0.2392 0.1392,0.32143 0.54413,0.32143 0.29927,0 1.12293,0.31559 1.83035,0.70131 1.8978,1.03474 3.23441,1.41536 6.06431,1.72685 1.39718,0.15379 2.58993,0.35987 2.65055,0.45796 0.0688,0.11129 1.54636,0.16708 3.93008,0.1484 2.10093,-0.0165 5.58912,-0.0229 7.75153,-0.0144 l 3.93166,0.0156 -0.20671,3.34821 c -0.11369,1.84152 -0.25911,4.38264 -0.32315,5.64693 -0.092,1.81666 -0.19477,2.45326 -0.49001,3.03571 -0.20546,0.40535 -0.42304,0.77718 -0.48351,0.82629 -0.0605,0.0491 -0.27066,0.40624 -0.46708,0.79362 -0.54488,1.07458 -2.65173,3.13495 -3.20567,3.13495 -0.28192,0 -0.45505,0.10017 -0.45505,0.26327 0,0.50205 -0.97739,0.80816 -2.58042,0.80816 -0.89877,0 -1.52672,0.0734 -1.52672,0.17857 0,0.24801 -0.76836,0.20675 -6.82788,-0.36673 z"
       id="path3230"
       inkscape:connector-curvature="0" />
    <path
       style="fill:#000000"
       d="m 430.68084,639.66866 c 0,-0.0972 -0.83871,-0.19467 -1.91964,-0.22321 l -1.91964,-0.0507 -0.0565,-0.49107 c -0.0501,-0.43536 -0.13112,-0.49171 -0.71428,-0.49675 -0.64618,-0.006 -1.28278,-0.32384 -1.28278,-0.6413 0,-0.0887 -0.18081,-0.24051 -0.40179,-0.33746 -0.22098,-0.0969 -0.48111,-0.35708 -0.57806,-0.57806 -0.0969,-0.22098 -0.24478,-0.40179 -0.32852,-0.40179 -0.32498,0 -0.8229,-0.83166 -0.82855,-1.38392 -0.005,-0.44829 -0.0829,-0.58036 -0.34398,-0.58036 -0.47362,0 -0.55482,-0.3288 -0.55482,-2.24675 0,-1.51615 -0.0325,-1.68182 -0.32972,-1.68182 -0.29933,0 -0.34854,-0.27569 -0.53392,-2.99107 -0.19116,-2.80023 -0.25755,-5.7687 -0.13181,-5.89443 0.0305,-0.0305 3.58168,-0.0595 7.89149,-0.0644 4.7031,-0.005 7.91821,-0.0772 8.04158,-0.17955 0.11306,-0.0938 1.27825,-0.29463 2.58933,-0.44623 1.70489,-0.19714 2.76518,-0.42371 3.72305,-0.79558 0.73661,-0.28596 1.43973,-0.52031 1.5625,-0.52076 0.12277,-4.4e-4 0.22322,-0.0664 0.22322,-0.14651 0,-0.33273 1.41683,-0.92574 2.21181,-0.92574 0.7964,0 0.8239,-0.0179 0.8239,-0.53571 0,-0.4932 0.0496,-0.53572 0.625,-0.53572 l 0.625,0 0,7.5 c 0,4.88096 -0.0624,7.5 -0.17857,7.5 -0.0982,0 -0.17857,0.18302 -0.17857,0.4067 0,1.14195 -3.20956,4.3288 -5.52978,5.49064 -0.68312,0.34207 -1.59324,0.47224 -6.33928,0.90668 -6.37188,0.58327 -6.16666,0.5718 -6.16666,0.34488 z"
       id="path3232"
       inkscape:connector-curvature="0"
       inkscape:export-xdpi="90"
       inkscape:export-ydpi="90" />
  </g>
</svg>
